<svg xmlns="http://www.w3.org/2000/svg" xmlns:xlink="http://www.w3.org/1999/xlink" version="1.1" id="Layer_1" x="0px" y="0px" width="100%" viewBox="0 0 500 500" enable-background="new 0 0 500 500" xml:space="preserve">
<path fill="#5271FF" opacity="1.000000" stroke="none" d=" M268.000000,501.000000   C178.666687,501.000000 89.833374,501.000000 1.000048,501.000000   C1.000032,334.333405 1.000032,167.666794 1.000016,1.000137   C167.666565,1.000091 334.333130,1.000091 500.999756,1.000046   C500.999847,167.666519 500.999847,334.333038 500.999939,500.999786   C423.500000,501.000000 346.000000,501.000000 268.000000,501.000000  M215.561615,213.092026   C223.768890,213.360107 230.823639,215.329529 232.460449,225.016724   C234.133102,225.016724 235.456085,225.052673 236.776260,225.007019   C238.213333,224.957352 239.647781,224.831924 241.061447,224.740936   C240.921753,217.039459 238.028152,211.580078 231.724152,208.523071   C221.230270,203.434250 210.421936,203.476990 199.927856,208.444809   C193.488617,211.493118 190.589340,217.288269 190.422028,224.303070   C190.259598,231.113632 193.455780,236.317764 199.425674,239.267502   C203.692734,241.375870 208.408554,242.638840 213.007935,243.994812   C217.932617,245.446701 223.051407,246.280579 227.906723,247.915146   C232.190201,249.357193 234.732361,252.723907 234.787720,257.382385   C234.845703,262.261322 232.735077,265.993774 228.218887,268.260712   C215.754166,274.517426 202.254211,269.559387 197.241821,256.904724   C194.480255,256.904724 191.763138,256.904724 188.808578,256.904724   C189.133194,265.668091 193.314240,271.549774 200.566147,275.020233   C211.243057,280.129700 222.256790,279.794006 232.949997,275.130005   C240.519577,271.828461 244.150803,265.565002 244.138779,257.219757   C244.126984,249.028748 239.803802,243.703598 232.678192,240.677246   C228.591919,238.941742 224.108444,238.133789 219.792923,236.947845   C215.002090,235.631271 210.079803,234.682449 205.437653,232.969452   C201.519119,231.523483 199.627258,228.226318 199.834183,223.864563   C200.037720,219.574097 202.101059,216.482727 206.011734,215.031021   C208.770782,214.006821 211.808350,213.732849 215.561615,213.092026  M264.854523,269.648071   C276.878937,279.299255 290.121613,280.929718 304.204437,275.143738   C313.925354,271.149872 320.664398,262.041779 321.140564,253.128876   C316.269104,252.573776 312.165192,252.164200 309.827087,258.480652   C307.587067,264.532013 301.818481,267.645538 295.500610,268.995483   C284.499542,271.346100 274.811127,268.794373 267.717865,259.857330   C260.207733,250.395004 259.492920,239.621033 264.422150,228.819443   C268.984375,218.822052 277.346954,213.856812 288.288605,213.632156   C297.969238,213.433395 305.882324,216.889450 310.668365,225.810211   C313.503052,231.093781 315.304443,231.773163 321.645416,229.528595   C319.209625,219.268356 313.157745,212.015961 303.477386,207.922577   C287.018433,200.962784 268.040436,206.521500 258.371735,220.993622   C248.165359,236.270569 250.566422,255.675858 264.854523,269.648071  M161.705261,223.688232   C159.879990,219.409317 157.859818,215.200226 156.293716,210.828445   C155.129257,207.577896 153.480591,206.182983 149.797607,206.232391   C146.330017,206.278900 144.911484,207.629745 143.664307,210.618500   C135.027100,231.316818 126.207359,251.938919 117.466568,272.594116   C116.920761,273.883881 116.546814,275.246399 116.058807,276.674896   C125.262177,277.510101 125.261513,277.509827 128.495850,269.814514   C129.203964,268.129730 130.134628,266.503052 130.583481,264.752380   C131.406921,261.540741 133.395447,260.874115 136.465149,260.969025   C143.444595,261.184814 150.435303,261.036621 157.421432,261.036560   C167.601379,261.036469 167.601379,261.036560 171.523178,270.336487   C174.839035,278.199493 174.877075,278.218506 183.889832,276.276001   C176.567825,258.945404 169.270477,241.673096 161.705261,223.688232  M332.573395,262.937195   C330.691833,267.453766 328.810272,271.970367 326.861816,276.647491   C336.250946,277.533173 336.249268,277.532471 339.483673,269.840302   C340.256470,268.002380 341.249664,266.227692 341.777100,264.323029   C342.548035,261.539062 344.235565,260.911957 346.936859,260.978088   C354.084961,261.153107 361.240234,261.036713 368.392639,261.036591   C378.599487,261.036438 378.599487,261.036560 382.510376,270.310516   C385.824249,278.168701 385.824280,278.168701 394.558075,276.376923   C394.525879,276.055847 394.570160,275.702545 394.450562,275.418243   C385.171539,253.366867 375.819794,231.345734 366.655762,209.246719   C365.338135,206.069260 363.058655,206.508331 360.595245,206.341232   C357.749969,206.148224 356.120087,207.040680 354.945557,209.879517   C347.704956,227.379868 340.255768,244.793915 332.573395,262.937195  M60.505558,212.732285   C60.505558,234.011597 60.505558,255.290894 60.505558,276.747345   C63.824348,276.747345 66.575027,276.747345 69.965736,276.747345   C69.965736,268.781189 69.965736,261.065460 69.965736,252.904755   C77.400322,252.904755 84.208252,253.151840 90.991966,252.851593   C103.786072,252.285339 112.661636,242.982361 112.943375,230.237564   C113.222252,217.621658 105.086182,207.925476 92.495804,206.894394   C83.726112,206.176208 74.859970,206.719498 66.056854,206.290207   C61.708584,206.078140 59.735027,207.320923 60.505558,212.732285  M405.519562,228.500015   C405.519562,244.567780 405.519562,260.635559 405.519562,276.742798   C420.371643,276.742798 434.452423,276.742798 448.770966,276.742798   C448.770966,274.051300 448.770966,271.623871 448.770966,268.596069   C437.557343,268.596069 426.494843,268.596069 414.818420,268.596069   C414.818420,247.648697 414.818420,227.290039 414.818420,206.771393   C411.467255,206.771393 408.750580,206.771393 405.520020,206.771393   C405.520020,213.927063 405.520020,220.713608 405.519562,228.500015  z"/>
<path fill="#FAFBFF" opacity="1.000000" stroke="none" d=" M215.141586,213.107971   C211.808350,213.732849 208.770782,214.006821 206.011734,215.031021   C202.101059,216.482727 200.037720,219.574097 199.834183,223.864563   C199.627258,228.226318 201.519119,231.523483 205.437653,232.969452   C210.079803,234.682449 215.002090,235.631271 219.792923,236.947845   C224.108444,238.133789 228.591919,238.941742 232.678192,240.677246   C239.803802,243.703598 244.126984,249.028748 244.138779,257.219757   C244.150803,265.565002 240.519577,271.828461 232.949997,275.130005   C222.256790,279.794006 211.243057,280.129700 200.566147,275.020233   C193.314240,271.549774 189.133194,265.668091 188.808578,256.904724   C191.763138,256.904724 194.480255,256.904724 197.241821,256.904724   C202.254211,269.559387 215.754166,274.517426 228.218887,268.260712   C232.735077,265.993774 234.845703,262.261322 234.787720,257.382385   C234.732361,252.723907 232.190201,249.357193 227.906723,247.915146   C223.051407,246.280579 217.932617,245.446701 213.007935,243.994812   C208.408554,242.638840 203.692734,241.375870 199.425674,239.267502   C193.455780,236.317764 190.259598,231.113632 190.422028,224.303070   C190.589340,217.288269 193.488617,211.493118 199.927856,208.444809   C210.421936,203.476990 221.230270,203.434250 231.724152,208.523071   C238.028152,211.580078 240.921753,217.039459 241.061447,224.740936   C239.647781,224.831924 238.213333,224.957352 236.776260,225.007019   C235.456085,225.052673 234.133102,225.016724 232.460449,225.016724   C230.823639,215.329529 223.768890,213.360107 215.141586,213.107971  z"/>
<path fill="#F9FAFF" opacity="1.000000" stroke="none" d=" M264.593628,269.409119   C250.566422,255.675858 248.165359,236.270569 258.371735,220.993622   C268.040436,206.521500 287.018433,200.962784 303.477386,207.922577   C313.157745,212.015961 319.209625,219.268356 321.645416,229.528595   C315.304443,231.773163 313.503052,231.093781 310.668365,225.810211   C305.882324,216.889450 297.969238,213.433395 288.288605,213.632156   C277.346954,213.856812 268.984375,218.822052 264.422150,228.819443   C259.492920,239.621033 260.207733,250.395004 267.717865,259.857330   C274.811127,268.794373 284.499542,271.346100 295.500610,268.995483   C301.818481,267.645538 307.587067,264.532013 309.827087,258.480652   C312.165192,252.164200 316.269104,252.573776 321.140564,253.128876   C320.664398,262.041779 313.925354,271.149872 304.204437,275.143738   C290.121613,280.929718 276.878937,279.299255 264.593628,269.409119  z"/>
<path fill="#FAFBFF" opacity="1.000000" stroke="none" d=" M161.839203,224.044525   C169.270477,241.673096 176.567825,258.945404 183.889832,276.276001   C174.877075,278.218506 174.839035,278.199493 171.523178,270.336487   C167.601379,261.036560 167.601379,261.036469 157.421432,261.036560   C150.435303,261.036621 143.444595,261.184814 136.465149,260.969025   C133.395447,260.874115 131.406921,261.540741 130.583481,264.752380   C130.134628,266.503052 129.203964,268.129730 128.495850,269.814514   C125.261513,277.509827 125.262177,277.510101 116.058807,276.674896   C116.546814,275.246399 116.920761,273.883881 117.466568,272.594116   C126.207359,251.938919 135.027100,231.316818 143.664307,210.618500   C144.911484,207.629745 146.330017,206.278900 149.797607,206.232391   C153.480591,206.182983 155.129257,207.577896 156.293716,210.828445   C157.859818,215.200226 159.879990,219.409317 161.839203,224.044525  M161.712387,246.853134   C157.934280,237.929428 154.156158,229.005737 149.867249,218.875565   C144.822357,230.923630 140.322525,241.669952 135.621902,252.895859   C145.431366,252.895859 154.478302,252.895859 163.974792,252.895859   C163.236557,250.917404 162.612900,249.246078 161.712387,246.853134  z"/>
<path fill="#FAFBFF" opacity="1.000000" stroke="none" d=" M332.724670,262.586914   C340.255768,244.793915 347.704956,227.379868 354.945557,209.879517   C356.120087,207.040680 357.749969,206.148224 360.595245,206.341232   C363.058655,206.508331 365.338135,206.069260 366.655762,209.246719   C375.819794,231.345734 385.171539,253.366867 394.450562,275.418243   C394.570160,275.702545 394.525879,276.055847 394.550964,276.377625   C385.824280,278.168701 385.824249,278.168701 382.510376,270.310516   C378.599487,261.036560 378.599487,261.036438 368.392639,261.036591   C361.240234,261.036713 354.084961,261.153107 346.936859,260.978088   C344.235565,260.911957 342.548035,261.539062 341.777100,264.323029   C341.249664,266.227692 340.256470,268.002380 339.483673,269.840302   C336.249268,277.532471 336.250946,277.533173 326.861816,276.647491   C328.810272,271.970367 330.691833,267.453766 332.724670,262.586914  M372.988525,247.572128   C369.113220,238.373871 365.237915,229.175629 360.866089,218.798843   C355.784515,230.991180 351.300781,241.749130 346.689575,252.812927   C356.548615,252.812927 365.568268,252.812927 375.038757,252.812927   C374.329559,251.017181 373.792969,249.658463 372.988525,247.572128  z"/>
<path fill="#FAFBFF" opacity="1.000000" stroke="none" d=" M60.505913,212.269745   C59.735027,207.320923 61.708584,206.078140 66.056854,206.290207   C74.859970,206.719498 83.726112,206.176208 92.495804,206.894394   C105.086182,207.925476 113.222252,217.621658 112.943375,230.237564   C112.661636,242.982361 103.786072,252.285339 90.991966,252.851593   C84.208252,253.151840 77.400322,252.904755 69.965736,252.904755   C69.965736,261.065460 69.965736,268.781189 69.965736,276.747345   C66.575027,276.747345 63.824348,276.747345 60.505558,276.747345   C60.505558,255.290894 60.505558,234.011597 60.505913,212.269745  M103.542397,227.963104   C102.584778,221.350082 99.017784,216.280197 92.462463,215.430954   C85.171555,214.486389 77.663925,215.214645 70.130753,215.214645   C70.130753,225.077148 70.130753,234.510986 70.130753,244.580414   C75.985771,244.580414 81.609253,244.665039 87.229309,244.562302   C98.048904,244.364502 102.932411,239.611237 103.542397,227.963104  z"/>
<path fill="#FCFCFF" opacity="1.000000" stroke="none" d=" M405.519775,228.000092   C405.520020,220.713608 405.520020,213.927063 405.520020,206.771393   C408.750580,206.771393 411.467255,206.771393 414.818420,206.771393   C414.818420,227.290039 414.818420,247.648697 414.818420,268.596069   C426.494843,268.596069 437.557343,268.596069 448.770966,268.596069   C448.770966,271.623871 448.770966,274.051300 448.770966,276.742798   C434.452423,276.742798 420.371643,276.742798 405.519562,276.742798   C405.519562,260.635559 405.519562,244.567780 405.519775,228.000092  z"/>
<path fill="#5573FF" opacity="1.000000" stroke="none" d=" M161.850830,247.213943   C162.612900,249.246078 163.236557,250.917404 163.974792,252.895859   C154.478302,252.895859 145.431366,252.895859 135.621902,252.895859   C140.322525,241.669952 144.822357,230.923630 149.867249,218.875565   C154.156158,229.005737 157.934280,237.929428 161.850830,247.213943  z"/>
<path fill="#5573FF" opacity="1.000000" stroke="none" d=" M373.122437,247.935944   C373.792969,249.658463 374.329559,251.017181 375.038757,252.812927   C365.568268,252.812927 356.548615,252.812927 346.689575,252.812927   C351.300781,241.749130 355.784515,230.991180 360.866089,218.798843   C365.237915,229.175629 369.113220,238.373871 373.122437,247.935944  z"/>
<path fill="#5573FF" opacity="1.000000" stroke="none" d=" M103.595520,228.356384   C102.932411,239.611237 98.048904,244.364502 87.229309,244.562302   C81.609253,244.665039 75.985771,244.580414 70.130753,244.580414   C70.130753,234.510986 70.130753,225.077148 70.130753,215.214645   C77.663925,215.214645 85.171555,214.486389 92.462463,215.430954   C99.017784,216.280197 102.584778,221.350082 103.595520,228.356384  z"/>
</svg>