<svg xmlns="http://www.w3.org/2000/svg" viewBox="0 0 24 24"><linearGradient id="a" x1="-267.89" x2="-267.885" y1="-308.278" y2="-308.284" gradientTransform="matrix(2500 0 0 -1643.5742 669732 -506670.469)" gradientUnits="userSpaceOnUse"><stop offset="0" stop-color="#c9cbce"/><stop offset="1" stop-color="#7b7a81"/></linearGradient><path fill="url(#a)" d="M14 16.956c-5 0-9.249-2.504-9.249-5.504S8.5 5.956 13.5 5.956c6.315 0 9.241 2.429 9.241 5.429S19.515 16.956 14 16.956zm-2-14c-6.5 0-12 3.5-12 8 0 4.25 5.467 7.778 11.967 7.778 6.5 0 12.033-3.278 12.033-7.778s-5.5-8-12-8z"/><path fill="#2165B6" d="M9.932 7.815v13.229h3.998v-5.145c.999 0 1.595-.218 2.249.98.999 1.715 2.249 4.165 2.249 4.165h4.747s-2.998-4.9-3.248-5.145c-.461-.49-.999-.49-1.749-.735 1.499-.245 2.897-.867 3.383-2.2.425-1.225.375-2.783-.536-3.828-.789-.827-1.598-1.322-3.597-1.322l-7.496.001zm3.998 2.755h2.623c.622 0 1.124.612 1.124 1.225 0 .612-.5 1.225-1.124 1.225H13.93v-2.45z"/></svg>